<svg xmlns="http://www.w3.org/2000/svg" version="1.1" width="381" height="381" viewBox="1287 399 381 381">
<defs>
<clipPath id="clip_1">
<path transform="matrix(1,0,0,-1,0,1080)" d="M0 0H1920V1080H0Z" />
</clipPath>
</defs>
<g clip-path="url(#clip_1)">
<path transform="matrix(1,0,0,-1,0,1080)" d="M1528.581 410.7979H1466.694C1479.426 424.7559 1492.23 437.9569 1505.082 450.4379 1544.715 488.9269 1584.813 520.7869 1624.721 547.0519 1602.095 606.5039 1544.582 648.7499 1477.188 648.7499 1390.028 648.7499 1319.375 578.0969 1319.375 490.9379 1319.375 444.1989 1339.691 402.2049 1371.979 373.3149 1373.532 371.9209 1375.115 370.5629 1376.719 369.2329 1383.458 363.6619 1390.67 358.6429 1398.282 354.2459 1398.371 354.1879 1398.466 354.1349 1398.555 354.0829 1406.056 349.7639 1413.947 346.0389 1422.159 342.9879 1422.963 342.6879 1423.768 342.3939 1424.583 342.1049 1433.042 339.1169 1441.833 336.8279 1450.886 335.3079 1452.243 335.0819 1453.605 334.8709 1454.979 334.6769 1462.232 333.6559 1469.649 333.1249 1477.188 333.1249 1478.629 333.1249 1480.071 333.1459 1481.501 333.1829 1485.909 333.2989 1490.271 333.5979 1494.579 334.0769 1497.577 334.4029 1500.55 334.8139 1503.49 335.3079 1512.064 336.7439 1520.397 338.8749 1528.44 341.6359 1528.893 341.7889 1529.345 341.9469 1529.792 342.1049 1530.607 342.3939 1531.412 342.6879 1532.217 342.9879 1576.363 359.4109 1611.166 395.0249 1626.489 439.6849 1632.007 455.7509 1635 472.9939 1635 490.9379 1635 498.0339 1634.524 505.0189 1633.616 511.8669 1597.981 483.7989 1562.738 450.4229 1528.581 410.7979" fill="#1b3764" />
<path transform="matrix(1,0,0,-1,0,1080)" d="M1339.757 411.0374 1463.098 587.8744C1466.461 592.9194 1472.227 597.7254 1480.157 597.7254 1487.845 597.7254 1493.611 593.4004 1497.215 587.8744L1547.029 514.2624C1547.029 514.2624 1492.707 614.6704 1370.704 410.7984Z" fill="#f69320" />
</g>
</svg>